<mxfile host="app.diagrams.net" modified="2024-04-13T10:25:01.692Z" agent="Mozilla/5.0 (Windows NT 10.0; Win64; x64) AppleWebKit/537.36 (KHTML, like Gecko) Chrome/123.0.0.0 Safari/537.36" version="24.2.5" etag="aunVf0FB2q7mf1CEMNwZ" type="github">
  <diagram name="Page-1" id="Xp7BcnjXbAts6n8gM-tV">
    <mxGraphModel>
      <root>
        <mxCell id="0" />
        <mxCell id="1" parent="0" />
      </root>
    </mxGraphModel>
  </diagram>
</mxfile>
